<svg width="40" height="40" viewBox="0 0 40 40" fill="none" xmlns="http://www.w3.org/2000/svg">
<path d="M20.4674 6.24442C20.3427 6.11748 20.1768 6.04663 20.0042 6.04663C19.8317 6.04663 19.6658 6.11748 19.5411 6.24442L4.12246 21.9199C4.05698 21.9866 4.00489 22.0667 3.96933 22.1554C3.93378 22.2441 3.9155 22.3395 3.9156 22.436L3.91309 37.1479C3.91309 37.9044 4.19545 38.6298 4.69805 39.1647C5.20066 39.6996 5.88234 40.0001 6.59313 40.0001H14.6416C14.997 40.0001 15.3379 39.8499 15.5892 39.5824C15.8405 39.315 15.9817 38.9522 15.9817 38.574V26.4522C15.9817 26.2631 16.0522 26.0817 16.1779 25.948C16.3035 25.8143 16.474 25.7392 16.6517 25.7392H23.3518C23.5295 25.7392 23.6999 25.8143 23.8255 25.948C23.9512 26.0817 24.0218 26.2631 24.0218 26.4522V38.574C24.0218 38.9522 24.163 39.315 24.4143 39.5824C24.6656 39.8499 25.0064 40.0001 25.3618 40.0001H33.407C34.1178 40.0001 34.7994 39.6996 35.302 39.1647C35.8046 38.6298 36.087 37.9044 36.087 37.1479V22.436C36.0871 22.3395 36.0688 22.2441 36.0333 22.1554C35.9977 22.0667 35.9456 21.9866 35.8801 21.9199L20.4674 6.24442Z" fill="white"/>
<path d="M39.5758 18.9107L33.3424 12.532V2.85243C33.3424 2.47417 33.202 2.11141 32.9519 1.84394C32.7019 1.57648 32.3627 1.42622 32.0091 1.42622H28.0091C27.6555 1.42622 27.3164 1.57648 27.0663 1.84394C26.8163 2.11141 26.6758 2.47417 26.6758 2.85243V5.70486L21.8491 0.768373C21.3975 0.279895 20.7258 0 20 0C19.2767 0 18.6067 0.279895 18.155 0.769265L0.430031 18.9089C-0.0883015 19.4438 -0.153301 20.3236 0.318364 20.903C0.436806 21.0492 0.581831 21.1682 0.744612 21.2525C0.907393 21.3369 1.08453 21.385 1.26523 21.3939C1.44593 21.4027 1.62643 21.3721 1.79573 21.304C1.96503 21.2358 2.1196 21.1315 2.25003 20.9975L19.5417 3.32308C19.6657 3.19613 19.8308 3.12528 20.0025 3.12528C20.1742 3.12528 20.3392 3.19613 20.4633 3.32308L37.7566 20.9975C38.0113 21.2588 38.3526 21.4014 38.7054 21.394C39.0583 21.3867 39.3941 21.23 39.6391 20.9582C40.1508 20.3913 40.1083 19.4554 39.5758 18.9107Z" fill="white"/>
</svg>
